#!OML:ASF C:\ViconDB\ViconDB\414\Spring2016\041811\Spring2016.ASF
:FULLY-SPECIFIED
:DEGREES
217
root 8.18988 17.698 -51.1447 -185.572 -5.36647 179.5
lowerback 2.74442 1.48873 -2.74692
upperback 1.97472 1.76487 -2.7425
thorax 0.488698 0.79993 -1.31427
lowerneck -12.3956 -3.87882 -10.3125
upperneck 20.758 -7.87125 15.241
head 9.58804 -3.43423 6.05791
rclavicle -7.82249e-015 3.02153e-014
rhumerus -52.6561 3.33831 -100.263
rradius 113.12
rwrist 16.4552
rhand -34.6542 -9.79077
rfingers 7.12502
rthumb -7.81101 -39.6265
lclavicle -7.82249e-015 3.02153e-014
lhumerus -66.3225 -18.515 94.4256
lradius 81.5896
lwrist -13.3266
lhand -37.6466 11.9112
lfingers 7.12502
lthumb -10.6984 41.6188
rfemur 3.95985 -20.1835 1.16192
rtibia 89.437
rfoot -167.6 -7.8957
rtoes -7.19202
lfemur -24.9005 1.82944 -26.5287
ltibia 49.6368
lfoot -15.5719 -1.56172
ltoes -1.33559
218
root 8.18988 17.698 -51.1447 -185.572 -5.36647 179.5
lowerback 2.74442 1.48873 -2.74692
upperback 1.97472 1.76487 -2.7425
thorax 0.488698 0.79993 -1.31427
lowerneck -12.3956 -3.87882 -10.3125
upperneck 20.758 -7.87125 15.241
head 9.58804 -3.43423 6.05791
rclavicle -7.82249e-015 3.02153e-014
rhumerus -52.6561 3.33831 -100.263
rradius 113.12
rwrist 16.4552
rhand -34.6542 -9.79077
rfingers 7.12502
rthumb -7.81101 -39.6265
lclavicle -7.82249e-015 3.02153e-014
lhumerus -66.3225 -18.515 94.4256
lradius 81.5896
lwrist -13.3266
lhand -37.6466 11.9112
lfingers 7.12502
lthumb -10.6984 41.6188
rfemur 3.95985 -20.1835 1.16192
rtibia 89.437
rfoot -167.6 -7.8957
rtoes -7.19202
lfemur -24.9005 1.82944 -26.5287
ltibia 49.6368
lfoot -15.5719 -1.56172
ltoes -1.33559
219
root 8.18988 17.698 -51.1447 -185.572 -5.36647 179.5
lowerback 2.74442 1.48873 -2.74692
upperback 1.97472 1.76487 -2.7425
thorax 0.488698 0.79993 -1.31427
lowerneck -12.3956 -3.87882 -10.3125
upperneck 20.758 -7.87125 15.241
head 9.58804 -3.43423 6.05791
rclavicle -7.82249e-015 3.02153e-014
rhumerus -52.6561 3.33831 -100.263
rradius 113.12
rwrist 16.4552
rhand -34.6542 -9.79077
rfingers 7.12502
rthumb -7.81101 -39.6265
lclavicle -7.82249e-015 3.02153e-014
lhumerus -66.3225 -18.515 94.4256
lradius 81.5896
lwrist -13.3266
lhand -37.6466 11.9112
lfingers 7.12502
lthumb -10.6984 41.6188
rfemur 3.95985 -20.1835 1.16192
rtibia 89.437
rfoot -167.6 -7.8957
rtoes -7.19202
lfemur -24.9005 1.82944 -26.5287
ltibia 49.6368
lfoot -15.5719 -1.56172
ltoes -1.33559
220
root 8.18988 17.698 -51.1447 -185.572 -5.36647 179.5
lowerback 2.74442 1.48873 -2.74692
upperback 1.97472 1.76487 -2.7425
thorax 0.488698 0.79993 -1.31427
lowerneck -12.3956 -3.87882 -10.3125
upperneck 20.758 -7.87125 15.241
head 9.58804 -3.43423 6.05791
rclavicle -7.82249e-015 3.02153e-014
rhumerus -52.6561 3.33831 -100.263
rradius 113.12
rwrist 16.4552
rhand -34.6542 -9.79077
rfingers 7.12502
rthumb -7.81101 -39.6265
lclavicle -7.82249e-015 3.02153e-014
lhumerus -66.3225 -18.515 94.4256
lradius 81.5896
lwrist -13.3266
lhand -37.6466 11.9112
lfingers 7.12502
lthumb -10.6984 41.6188
rfemur 3.95985 -20.1835 1.16192
rtibia 89.437
rfoot -167.6 -7.8957
rtoes -7.19202
lfemur -24.9005 1.82944 -26.5287
ltibia 49.6368
lfoot -15.5719 -1.56172
ltoes -1.33559
221
root 8.18988 17.698 -51.1447 -185.572 -5.36647 179.5
lowerback 2.74442 1.48873 -2.74692
upperback 1.97472 1.76487 -2.7425
thorax 0.488698 0.79993 -1.31427
lowerneck -12.3956 -3.87882 -10.3125
upperneck 20.758 -7.87125 15.241
head 9.58804 -3.43423 6.05791
rclavicle -7.82249e-015 3.02153e-014
rhumerus -52.6561 3.33831 -100.263
rradius 113.12
rwrist 16.4552
rhand -34.6542 -9.79077
rfingers 7.12502
rthumb -7.81101 -39.6265
lclavicle -7.82249e-015 3.02153e-014
lhumerus -66.3225 -18.515 94.4256
lradius 81.5896
lwrist -13.3266
lhand -37.6466 11.9112
lfingers 7.12502
lthumb -10.6984 41.6188
rfemur 3.95985 -20.1835 1.16192
rtibia 89.437
rfoot -167.6 -7.8957
rtoes -7.19202
lfemur -24.9005 1.82944 -26.5287
ltibia 49.6368
lfoot -15.5719 -1.56172
ltoes -1.33559
222
root 8.18988 17.698 -51.1447 -185.572 -5.36647 179.5
lowerback 2.74442 1.48873 -2.74692
upperback 1.97472 1.76487 -2.7425
thorax 0.488698 0.79993 -1.31427
lowerneck -12.3956 -3.87882 -10.3125
upperneck 20.758 -7.87125 15.241
head 9.58804 -3.43423 6.05791
rclavicle -7.82249e-015 3.02153e-014
rhumerus -52.6561 3.33831 -100.263
rradius 113.12
rwrist 16.4552
rhand -34.6542 -9.79077
rfingers 7.12502
rthumb -7.81101 -39.6265
lclavicle -7.82249e-015 3.02153e-014
lhumerus -66.3225 -18.515 94.4256
lradius 81.5896
lwrist -13.3266
lhand -37.6466 11.9112
lfingers 7.12502
lthumb -10.6984 41.6188
rfemur 3.95985 -20.1835 1.16192
rtibia 89.437
rfoot -167.6 -7.8957
rtoes -7.19202
lfemur -24.9005 1.82944 -26.5287
ltibia 49.6368
lfoot -15.5719 -1.56172
ltoes -1.33559
223
root 8.18988 17.698 -51.1447 -185.572 -5.36647 179.5
lowerback 2.74442 1.48873 -2.74692
upperback 1.97472 1.76487 -2.7425
thorax 0.488698 0.79993 -1.31427
lowerneck -12.3956 -3.87882 -10.3125
upperneck 20.758 -7.87125 15.241
head 9.58804 -3.43423 6.05791
rclavicle -7.82249e-015 3.02153e-014
rhumerus -52.6561 3.33831 -100.263
rradius 113.12
rwrist 16.4552
rhand -34.6542 -9.79077
rfingers 7.12502
rthumb -7.81101 -39.6265
lclavicle -7.82249e-015 3.02153e-014
lhumerus -66.3225 -18.515 94.4256
lradius 81.5896
lwrist -13.3266
lhand -37.6466 11.9112
lfingers 7.12502
lthumb -10.6984 41.6188
rfemur 3.95985 -20.1835 1.16192
rtibia 89.437
rfoot -167.6 -7.8957
rtoes -7.19202
lfemur -24.9005 1.82944 -26.5287
ltibia 49.6368
lfoot -15.5719 -1.56172
ltoes -1.33559
224
root 8.18988 17.698 -51.1447 -185.572 -5.36647 179.5
lowerback 2.74442 1.48873 -2.74692
upperback 1.97472 1.76487 -2.7425
thorax 0.488698 0.79993 -1.31427
lowerneck -12.3956 -3.87882 -10.3125
upperneck 20.758 -7.87125 15.241
head 9.58804 -3.43423 6.05791
rclavicle -7.82249e-015 3.02153e-014
rhumerus -52.6561 3.33831 -100.263
rradius 113.12
rwrist 16.4552
rhand -34.6542 -9.79077
rfingers 7.12502
rthumb -7.81101 -39.6265
lclavicle -7.82249e-015 3.02153e-014
lhumerus -66.3225 -18.515 94.4256
lradius 81.5896
lwrist -13.3266
lhand -37.6466 11.9112
lfingers 7.12502
lthumb -10.6984 41.6188
rfemur 3.95985 -20.1835 1.16192
rtibia 89.437
rfoot -167.6 -7.8957
rtoes -7.19202
lfemur -24.9005 1.82944 -26.5287
ltibia 49.6368
lfoot -15.5719 -1.56172
ltoes -1.33559
225
root 8.13509 17.5438 -54.3612 -185.095 -7.50197 176.468
lowerback 9.0767 -1.6954 -7.87191
upperback -0.797924 -3.60331 -3.62482
thorax -5.71912 -1.69562 1.11119
lowerneck -12.3956 -3.87882 -10.3125
upperneck 20.758 -7.87125 15.241
head 9.58804 -3.43423 6.05791
rclavicle 2.64384e-014 3.4191e-014
rhumerus -64.7236 -9.14156 -93.8174
rradius 92.8893
rwrist 22.5574
rhand -28.2616 -15.1803
rfingers 7.12502
rthumb -1.63854 -45.1537
lclavicle 2.64384e-014 3.4191e-014
lhumerus -66.3225 -18.515 94.4256
lradius 81.5896
lwrist -13.3266
lhand -37.6466 11.9112
lfingers 7.12502
lthumb -10.6984 41.6188
rfemur -26.5429 -16.3798 9.5095
rtibia 94.8794
rfoot -167.082 -3.86143
rtoes -13.4526
lfemur -12.6979 1.47778 -28.6846
ltibia 49.6057
lfoot -23.8837 -5.17161
ltoes -9.5088
226
root 8.12116 17.5737 -54.7551 -184.706 -8.10729 176.557
lowerback 7.19456 -0.881484 -6.11049
upperback -0.370112 -2.09727 -3.67536
thorax -4.36216 -1.03991 -0.159653
lowerneck -12.3956 -3.87882 -10.3125
upperneck 20.758 -7.87125 15.241
head 9.58804 -3.43423 6.05791
rclavicle -1.37161e-014 6.59965e-014
rhumerus -64.7236 -9.14156 -93.8174
rradius 92.8893
rwrist 22.5574
rhand -28.2616 -15.1803
rfingers 7.12502
rthumb -1.63854 -45.1537
lclavicle -1.37161e-014 6.59965e-014
lhumerus -66.3225 -18.515 94.4256
lradius 81.5896
lwrist -13.3266
lhand -37.6466 11.9112
lfingers 7.12502
lthumb -10.6984 41.6188
rfemur -28.5319 -15.9448 11.2914
rtibia 91.9229
rfoot -168.093 -4.30605
rtoes -1.53359
lfemur -10.8675 0.291341 -28.6562
ltibia 48.4574
lfoot -24.7149 -4.90064
ltoes -10.2618
227
root 8.11507 17.6284 -55.1649 -184.151 -8.63076 176.867
lowerback 6.68227 -1.11598 -5.643
upperback -0.665461 -2.29213 -3.39885
thorax -4.37632 -1.12324 -0.122819
lowerneck -12.3956 -3.87882 -10.3125
upperneck 20.758 -7.87125 15.241
head 9.58804 -3.43423 6.05791
rclavicle -1.02871e-014 -1.66979e-014
rhumerus -64.7236 -9.14156 -93.8174
rradius 92.8893
rwrist 22.5574
rhand -28.2616 -15.1803
rfingers 7.12502
rthumb -1.63854 -45.1537
lclavicle -1.02871e-014 -1.66979e-014
lhumerus -66.3225 -18.515 94.4256
lradius 81.5896
lwrist -13.3266
lhand -37.6466 11.9112
lfingers 7.12502
lthumb -10.6984 41.6188
rfemur -30.4669 -15.0563 13.3558
rtibia 88.1749
rfoot -168.425 -5.53668
rtoes 1.34394
lfemur -9.26415 -0.973693 -28.3291
ltibia 47.252
lfoot -25.5039 -4.74146
ltoes -8.18652
228
root 8.10666 17.6861 -55.5689 -184.407 -8.56062 176.87
lowerback 7.16938 -1.15038 -5.52061
upperback -1.15974 -2.395 -3.39438
thorax -5.17144 -1.15101 -0.158063
lowerneck -12.3956 -3.87882 -10.3125
upperneck 20.758 -7.87125 15.241
head 9.58804 -3.43423 6.05791
rclavicle 2.48481e-015 -4.45278e-014
rhumerus -64.7236 -9.14156 -93.8174
rradius 92.8893
rwrist 22.5574
rhand -28.2616 -15.1803
rfingers 7.12502
rthumb -1.63854 -45.1537
lclavicle 2.48481e-015 -4.45278e-014
lhumerus -66.3225 -18.515 94.4256
lradius 81.5896
lwrist -13.3266
lhand -37.6466 11.9112
lfingers 7.12502
lthumb -10.6984 41.6188
rfemur -31.1124 -13.2735 14.5937
rtibia 83.7997
rfoot -172.318 -4.59008
rtoes -6.84225
lfemur -6.62307 -1.81129 -28.3966
ltibia 45.8743
lfoot -25.6517 -4.00673
ltoes -9.46361
229
root 8.10666 17.6861 -55.5689 -184.407 -8.56062 176.87
lowerback 7.16938 -1.15038 -5.52061
upperback -1.15974 -2.395 -3.39438
thorax -5.17144 -1.15101 -0.158063
lowerneck -12.3956 -3.87882 -10.3125
upperneck 20.758 -7.87125 15.241
head 9.58804 -3.43423 6.05791
rclavicle 2.48481e-015 -4.45278e-014
rhumerus -64.7236 -9.14156 -93.8174
rradius 92.8893
rwrist 22.5574
rhand -28.2616 -15.1803
rfingers 7.12502
rthumb -1.63854 -45.1537
lclavicle 2.48481e-015 -4.45278e-014
lhumerus -66.3225 -18.515 94.4256
lradius 81.5896
lwrist -13.3266
lhand -37.6466 11.9112
lfingers 7.12502
lthumb -10.6984 41.6188
rfemur -31.1124 -13.2735 14.5937
rtibia 83.7997
rfoot -172.318 -4.59008
rtoes -6.84225
lfemur -6.62307 -1.81129 -28.3966
ltibia 45.8743
lfoot -25.6517 -4.00673
ltoes -9.46361
230
root 8.10666 17.6861 -55.5689 -184.407 -8.56062 176.87
lowerback 7.16938 -1.15038 -5.52061
upperback -1.15974 -2.395 -3.39438
thorax -5.17144 -1.15101 -0.158063
lowerneck -12.3956 -3.87882 -10.3125
upperneck 20.758 -7.87125 15.241
head 9.58804 -3.43423 6.05791
rclavicle 2.48481e-015 -4.45278e-014
rhumerus -64.7236 -9.14156 -93.8174
rradius 92.8893
rwrist 22.5574
rhand -28.2616 -15.1803
rfingers 7.12502
rthumb -1.63854 -45.1537
lclavicle 2.48481e-015 -4.45278e-014
lhumerus -66.3225 -18.515 94.4256
lradius 81.5896
lwrist -13.3266
lhand -37.6466 11.9112
lfingers 7.12502
lthumb -10.6984 41.6188
rfemur -31.1124 -13.2735 14.5937
rtibia 83.7997
rfoot -172.318 -4.59008
rtoes -6.84225
lfemur -6.62307 -1.81129 -28.3966
ltibia 45.8743
lfoot -25.6517 -4.00673
ltoes -9.46361
231
root 8.10666 17.6861 -55.5689 -184.407 -8.56062 176.87
lowerback 7.16938 -1.15038 -5.52061
upperback -1.15974 -2.395 -3.39438
thorax -5.17144 -1.15101 -0.158063
lowerneck -12.3956 -3.87882 -10.3125
upperneck 20.758 -7.87125 15.241
head 9.58804 -3.43423 6.05791
rclavicle 2.48481e-015 -4.45278e-014
rhumerus -64.7236 -9.14156 -93.8174
rradius 92.8893
rwrist 22.5574
rhand -28.2616 -15.1803
rfingers 7.12502
rthumb -1.63854 -45.1537
lclavicle 2.48481e-015 -4.45278e-014
lhumerus -66.3225 -18.515 94.4256
lradius 81.5896
lwrist -13.3266
lhand -37.6466 11.9112
lfingers 7.12502
lthumb -10.6984 41.6188
rfemur -31.1124 -13.2735 14.5937
rtibia 83.7997
rfoot -172.318 -4.59008
rtoes -6.84225
lfemur -6.62307 -1.81129 -28.3966
ltibia 45.8743
lfoot -25.6517 -4.00673
ltoes -9.46361
